<?xml version="1.0" encoding="utf-8"?>
<!-- Generator: Adobe Illustrator 15.0.0, SVG Export Plug-In . SVG Version: 6.00 Build 0)  -->
<!DOCTYPE svg PUBLIC "-//W3C//DTD SVG 1.1//EN" "http://www.w3.org/Graphics/SVG/1.1/DTD/svg11.dtd">
<svg version="1.1" id="Livello_1" xmlns="http://www.w3.org/2000/svg" xmlns:xlink="http://www.w3.org/1999/xlink" x="0px" y="0px"
	 width="312px" height="312px" viewBox="0 0 312 312" enable-background="new 0 0 312 312" xml:space="preserve">
<g>
	<path fill="#000000" d="M217.98,174.5h15.199v15.37c0,4.12-1.47,7.65-4.399,10.57c-2.92,2.93-6.53,4.39-10.8,4.39
		c-4.261,0-7.921-1.4-10.99-4.19c-3.07-3.06-4.601-6.65-4.601-10.77c0-4.26,1.53-7.92,4.601-10.98
		C209.92,175.97,213.59,174.5,217.98,174.5z"/>
	<path fill="#000000" d="M156,0C69.84,0,0,69.67,0,155.62s69.84,155.62,156,155.62c86.15,0,156-69.67,156-155.62S242.15,0,156,0z
		 M248.78,189.87c0,8.38-3,15.56-9,21.54c-6.13,6.12-13.4,9.18-21.8,9.18c-8.53,0-15.86-3.06-21.99-9.18
		c-6.13-5.98-9.2-13.16-9.2-21.54s3.07-15.63,9.2-21.74c6.26-5.99,13.6-8.98,21.99-8.98h15.199l-0.01-16.19
		c0-4.25-1.46-7.84-4.4-10.76c-2.739-2.73-6.06-4.27-9.97-4.38l-15.77-0.01h-30.11v62.12c0,8.24-3.08,15.42-9.189,21.54
		c-6.15,6.11-13.411,9.18-21.811,9.18s-15.66-3.07-21.8-9.18c-5.99-5.98-8.99-13.17-8.99-21.54v-16.74l0.01-45.37H94.45
		c-3.91,0.11-7.23,1.65-9.97,4.38c-2.94,2.92-4.4,6.51-4.4,10.76c0,0.01,0,0.01,0,0.02v62.58c0,4.12-1.53,7.61-4.6,10.47
		c-3.07,2.86-6.73,4.3-11,4.3v-76.66c0-8.86,3.06-16.35,9.18-22.44c5.7-5.7,12.64-8.91,20.79-9.14l24.28-0.03
		c2.27,0,4.17,0.77,5.7,2.29c1.53,1.53,2.29,3.36,2.29,5.48v69.9c0,4.25,1.47,7.85,4.4,10.77c2.93,2.92,6.53,4.39,10.8,4.39
		c4.4,0,8-1.47,10.8-4.39c2.93-2.8,4.4-6.31,4.4-10.57V89.46c0-8.86,3.05-16.34,9.17-22.43c5.71-5.7,12.64-8.91,20.79-9.15
		c0.21,0,31.91-0.01,31.91-0.01c0,4.32-1.45,8.03-4.36,11.13c-2.91,3.11-6.46,4.67-10.66,4.67c0,0-16.67-0.05-16.899-0.04
		c-3.9,0.11-7.221,1.66-9.971,4.39c-2.93,2.92-4.39,6.5-4.39,10.75v0.02l0.04,23.27h46.06v0.03c8.15,0.23,15.08,3.44,20.79,9.14
		c6.12,6.09,9.181,13.58,9.181,22.44V189.87z"/>
</g>
</svg>
