<svg width="175" height="60" xmlns="http://www.w3.org/2000/svg">

 <g>
  <title>background</title>
  <rect fill="none" id="canvas_background" height="62" width="177" y="-1" x="-1"/>
 </g>
 <g>
  <title>Layer 1</title>
  <path id="svg_3" d="m87.708,8.212c2.463,0 3.45,0.493 3.45,0.493l1.478,-6.241c0,0 1.15,4.763 1.643,9.034c0.493,4.271 8.048,1.479 14.454,0.164c6.405,-1.314 7.72,-11.662 7.72,-11.662l59.294,0c0,0 -35.807,10.841 -26.772,34.656c0,0 -52.889,-8.048 -61.101,24.967l-0.001,0c-8.212,-33.015 -61.101,-24.967 -61.101,-24.967c9.034,-23.815 -26.772,-34.656 -26.772,-34.656l59.294,0c0,0 1.314,10.348 7.719,11.662c6.406,1.314 13.962,4.106 14.454,-0.164c0.493,-4.271 1.643,-9.034 1.643,-9.034l1.479,6.241c0,0 0.985,-0.493 3.449,-0.493l-0.33,0l0,0z"/>
 </g>
</svg>